<svg width="16" height="16" viewBox="0 0 16 16" fill="none" xmlns="http://www.w3.org/2000/svg">
<rect width="16" height="16" rx="8" fill="white"/>
<path d="M7.57646 8.35019V9.60643C7.10191 9.41409 6.59404 9.3551 6.09549 9.4344C5.59693 9.5137 5.12225 9.72898 4.71131 10.0622C4.30037 10.3954 3.96517 10.8367 3.73385 11.3492C3.50254 11.8617 3.38186 12.4303 3.38195 13.0073L2.33333 13.0067C2.33317 12.2727 2.47957 11.5484 2.76132 10.8894C3.04308 10.2303 3.4527 9.65388 3.95881 9.20434C4.46492 8.75479 5.05408 8.44404 5.68115 8.29588C6.30821 8.14772 6.95654 8.16669 7.57646 8.35019ZM6.52783 7.59765C4.78973 7.59765 3.38195 5.98376 3.38195 3.99121C3.38195 1.99865 4.78973 0.384766 6.52783 0.384766C8.26593 0.384766 9.67371 1.99865 9.67371 3.99121C9.67371 5.98376 8.26593 7.59765 6.52783 7.59765ZM6.52783 6.3955C7.68656 6.3955 8.62508 5.31958 8.62508 3.99121C8.62508 2.66283 7.68656 1.58691 6.52783 1.58691C5.3691 1.58691 4.43058 2.66283 4.43058 3.99121C4.43058 5.31958 5.3691 6.3955 6.52783 6.3955ZM12.197 10.5L12.2206 10.6205L12.2953 11L12.197 10.5L12.2485 10.8384L12.197 11V10.5Z" fill="#FAAD39"/>
<path d="M10.5 11L10.5 13L13 10.5L10.5 8L10.5 10L9 10L9 11L10.5 11Z" fill="#FAAD39"/>
</svg>
